<?xml version="1.0" encoding="utf-8"?>
<!-- Uploaded to: SVG Repo, www.svgrepo.com, Generator: SVG Repo Mixer Tools -->
<svg fill="#000000" width="800px" height="800px" viewBox="0 0 32 32" version="1.1" xmlns="http://www.w3.org/2000/svg">
<title>smile</title>
<path d="M11.188 5.094c6.188 0 11.219 4.844 11.219 10.906s-5.031 10.906-11.219 10.906-11.188-4.844-11.188-10.906 5-10.906 11.188-10.906zM8.063 10.438h-1.281c-0.344 0-0.594 0.281-0.594 0.625v3.125c0 0.344 0.25 0.656 0.594 0.656h1.281c0.313 0 0.625-0.313 0.625-0.656v-3.125c0-0.344-0.313-0.625-0.625-0.625zM15.625 10.438h-1.281c-0.313 0-0.625 0.281-0.625 0.625v3.125c0 0.344 0.313 0.656 0.625 0.656h1.281c0.344 0 0.594-0.313 0.594-0.656v-3.125c0-0.344-0.25-0.625-0.594-0.625zM7.125 18l-1.219 0.406c-0.125 0.031-0.219 0.125-0.25 0.219-0.063 0.094-0.063 0.219-0.031 0.344s1.125 3.281 5.563 3.25c4.438 0.031 5.563-3.125 5.594-3.25s0.031-0.25-0.031-0.344c-0.031-0.094-0.156-0.188-0.281-0.219l-1.063-0.375-0.156-0.031c-0.188 0-0.344 0.156-0.406 0.313 0 0.031-0.688 1.906-3.656 1.906-2.938 0-3.594-1.813-3.625-1.906-0.063-0.156-0.25-0.313-0.438-0.313z"></path>
</svg>