<?xml version="1.0" encoding="UTF-8" standalone="no"?>
<svg
   xmlns:dc="http://purl.org/dc/elements/1.1/"
   xmlns:cc="http://creativecommons.org/ns#"
   xmlns:rdf="http://www.w3.org/1999/02/22-rdf-syntax-ns#"
   xmlns:svg="http://www.w3.org/2000/svg"
   xmlns="http://www.w3.org/2000/svg"
   xmlns:sodipodi="http://sodipodi.sourceforge.net/DTD/sodipodi-0.dtd"
   xmlns:inkscape="http://www.inkscape.org/namespaces/inkscape"
   viewBox="0 0 500 500"
   version="1.1"
   id="svg1006"
   sodipodi:docname="upload.svg"
   inkscape:version="0.92.5 (2060ec1f9f, 2020-04-08)">
  <defs
     id="defs858" />
  <metadata
     id="metadata1010">
    <rdf:RDF>
      <cc:Work
         rdf:about="">
        <dc:format>image/svg+xml</dc:format>
        <dc:type
           rdf:resource="http://purl.org/dc/dcmitype/StillImage" />
      </cc:Work>
    </rdf:RDF>
  </metadata>
  <sodipodi:namedview
     pagecolor="#ffffff"
     bordercolor="#666666"
     borderopacity="1"
     objecttolerance="10"
     gridtolerance="10"
     guidetolerance="10"
     inkscape:pageopacity="0"
     inkscape:pageshadow="2"
     inkscape:window-width="1920"
     inkscape:window-height="996"
     id="namedview1008"
     showgrid="false"
     inkscape:zoom="7.552"
     inkscape:cx="215.1049"
     inkscape:cy="273.89745"
     inkscape:window-x="1280"
     inkscape:window-y="0"
     inkscape:window-maximized="1"
     inkscape:current-layer="svg1006" />
  <path
     d="m 249.09898,71.894763 c -40.85876,0.12808 -80.32526,14.86414 -111.26905,41.547857 -23.71473,20.43322 -40.897191,47.0593 -45.325051,73.7776 -51.888065,11.45455 -91.0842998,56.65664 -91.0842998,111.23831 0,63.40537 52.8794398,113.99339 117.0597208,113.99339 h 275.72749 c 56.19297,0 102.56959,-44.2722 102.56959,-99.90672 0,-50.65078 -38.45207,-91.91941 -87.74003,-98.8859 C 401.51498,133.78362 332.38169,71.894763 249.09898,71.894763"
     style="fill: #b216eb; "
     id="path1002"
     inkscape:connector-curvature="0" />
  <path
     style="fill:#ffffff;fill-opacity:0.99450546;stroke-width:1.23898888"
     d="m 337.86912,261.18534 c -7.09536,1.6586 -14.66474,-0.11121 -19.85882,-4.6423 l -47.06615,-41.09436 v 135.89375 c 0,13.78903 -17.11141,22.40809 -30.80088,15.51284 -6.35455,-3.2001 -10.26752,-9.11413 -10.26752,-15.51284 V 215.44868 l -47.06615,41.09436 c -11.19182,9.76334 -30.30134,5.29595 -34.39783,-8.041 -1.90127,-6.18973 0.12748,-12.79446 5.32152,-17.32559 l 82.1385,-71.65463 c 8.02304,-7.0168 21.05328,-7.0168 29.07632,0 l 82.1385,71.65463"
     id="path1004"
     inkscape:connector-curvature="0"
     sodipodi:nodetypes="cccscsccccccc" />
</svg>
