<?xml version="1.0" encoding="utf-8"?>
<!-- Uploaded to: SVG Repo, www.svgrepo.com, Generator: SVG Repo Mixer Tools -->
<svg fill="#000000" width="800px" height="800px" viewBox="0 0 32 32" version="1.1" xmlns="http://www.w3.org/2000/svg">
<title>upload</title>
<path d="M4.125 13.688h4.031v6.594c0 0.563 0.469 1.031 1.031 1.031h4.031c0.563 0 1.063-0.469 1.063-1.031v-6.594h4.031c0.531 0 0.688-0.281 0.313-0.688l-6.688-6.656c-0.188-0.219-0.469-0.344-0.75-0.344s-0.531 0.125-0.719 0.344l-6.656 6.656c-0.375 0.406-0.25 0.688 0.313 0.688zM0 18.344v7.125c0 0.313 0.156 0.5 0.5 0.5h21.375c0.344 0 0.531-0.188 0.531-0.5v-7.125c0-0.313-0.25-0.563-0.531-0.563h-2.031c-0.281 0-0.531 0.281-0.531 0.563v4.531h-16.25v-4.531c0-0.313-0.219-0.563-0.5-0.563h-2.063c-0.281 0-0.5 0.281-0.5 0.563z"></path>
</svg>