<?xml version="1.0" encoding="UTF-8" standalone="no"?>
<svg
   xmlns:dc="http://purl.org/dc/elements/1.1/"
   xmlns:cc="http://creativecommons.org/ns#"
   xmlns:rdf="http://www.w3.org/1999/02/22-rdf-syntax-ns#"
   xmlns:svg="http://www.w3.org/2000/svg"
   xmlns="http://www.w3.org/2000/svg"
   xmlns:sodipodi="http://sodipodi.sourceforge.net/DTD/sodipodi-0.dtd"
   xmlns:inkscape="http://www.inkscape.org/namespaces/inkscape"
   width="16"
   height="16"
   class="bi bi-heart-half"
   viewBox="0 0 16 16"
   version="1.1"
   id="svg3785"
   sodipodi:docname="hearth.svg"
   inkscape:version="0.92.5 (2060ec1f9f, 2020-04-08)">
  <metadata
     id="metadata3791">
    <rdf:RDF>
      <cc:Work
         rdf:about="">
        <dc:format>image/svg+xml</dc:format>
        <dc:type
           rdf:resource="http://purl.org/dc/dcmitype/StillImage" />
        <dc:title />
      </cc:Work>
    </rdf:RDF>
  </metadata>
  <defs
     id="defs3789" />
  <sodipodi:namedview
     pagecolor="#ffffff"
     bordercolor="#666666"
     borderopacity="1"
     objecttolerance="10"
     gridtolerance="10"
     guidetolerance="10"
     inkscape:pageopacity="0"
     inkscape:pageshadow="2"
     inkscape:window-width="1920"
     inkscape:window-height="996"
     id="namedview3787"
     showgrid="false"
     inkscape:zoom="49.375"
     inkscape:cx="6.6588984"
     inkscape:cy="6.4494232"
     inkscape:window-x="1280"
     inkscape:window-y="0"
     inkscape:window-maximized="1"
     inkscape:current-layer="svg3785" />
  <path
     d="M 8.0202531,3.4366076 V 14.483607 c 3.4519999,-2.368 5.3649999,-4.5419994 6.2859999,-6.3569994 0.955,-1.886 0.838,-3.362 0.314,-4.385 -1.114,-2.175 -4.2,-2.773 -5.8829999,-1.043 z m 0,12.2519994 c -15.333,-10.1319994 -4.721,-18.0399994 -0.176,-13.8569994 0.06,0.055 0.119,0.112 0.176,0.171 a 3.12,3.12 0 0 1 0.176,-0.17 c 4.5439999,-4.186 15.1569999,3.723 -0.176,13.8559994 z"
     id="path3783"
     style="fill:#00a5ff"
     inkscape:connector-curvature="0" />
  <path
     style="fill:#b216eb;stroke-width:4;fill-opacity:0.9285714"
     d="M 8.0202531,8.950939 V 3.4366076 L 8.5316456,2.9264013 C 9.0821126,2.3772109 9.2258797,2.2635811 9.6213561,2.0651217 10.830076,1.4585576 12.388908,1.6279737 13.539661,2.4909689 c 0.244794,0.1835804 0.545833,0.4791631 0.71209,0.6991821 0.985834,1.3046256 1.001653,3.0143139 0.04544,4.9109672 C 13.406179,9.8684365 11.734528,11.690999 9.3164557,13.531497 9.0201732,13.75701 8.2248069,14.332539 8.0759494,14.42913 l -0.055696,0.03614 z"
     id="path3797"
     inkscape:connector-curvature="0" />
</svg>
