<?xml version="1.0" encoding="UTF-8" standalone="no"?>
<svg
   xmlns:dc="http://purl.org/dc/elements/1.1/"
   xmlns:cc="http://creativecommons.org/ns#"
   xmlns:rdf="http://www.w3.org/1999/02/22-rdf-syntax-ns#"
   xmlns:svg="http://www.w3.org/2000/svg"
   xmlns="http://www.w3.org/2000/svg"
   xmlns:sodipodi="http://sodipodi.sourceforge.net/DTD/sodipodi-0.dtd"
   xmlns:inkscape="http://www.inkscape.org/namespaces/inkscape"
   width="16"
   height="16"
   fill="#24a1e9"
   class="bi bi-heart-half"
   viewBox="0 0 16 16"
   version="1.1"
   id="svg3785"
   sodipodi:docname="hearth.svg"
   inkscape:version="0.92.5 (2060ec1f9f, 2020-04-08)">
  <metadata
     id="metadata3791">
    <rdf:RDF>
      <cc:Work
         rdf:about="">
        <dc:format>image/svg+xml</dc:format>
        <dc:type
           rdf:resource="http://purl.org/dc/dcmitype/StillImage" />
        <dc:title></dc:title>
      </cc:Work>
    </rdf:RDF>
  </metadata>
  <defs
     id="defs3789" />
  <sodipodi:namedview
     pagecolor="#ffffff"
     bordercolor="#666666"
     borderopacity="1"
     objecttolerance="10"
     gridtolerance="10"
     guidetolerance="10"
     inkscape:pageopacity="0"
     inkscape:pageshadow="2"
     inkscape:window-width="1920"
     inkscape:window-height="996"
     id="namedview3787"
     showgrid="false"
     inkscape:zoom="49.375"
     inkscape:cx="6.7949367"
     inkscape:cy="9.6202532"
     inkscape:window-x="1280"
     inkscape:window-y="0"
     inkscape:window-maximized="1"
     inkscape:current-layer="svg3785" />
  <path
     d="M8 2.748v11.047c3.452-2.368 5.365-4.542 6.286-6.357.955-1.886.838-3.362.314-4.385C13.486.878 10.4.28 8.717 2.01L8 2.748zM8 15C-7.333 4.868 3.279-3.04 7.824 1.143c.06.055.119.112.176.171a3.12 3.12 0 0 1 .176-.17C12.72-3.042 23.333 4.867 8 15z"
     id="path3783"  />
  <path
     style="fill:#8f5B7B;stroke-width:4;"
     d="M 8.0060759,8.262479 V 2.7481476 L 8.5174684,2.2379413 C 9.0679354,1.6887509 9.2117025,1.5751211 9.6071789,1.3766617 10.815899,0.7700976 12.374731,0.93951374 13.525484,1.8025089 c 0.244794,0.1835804 0.545833,0.4791631 0.71209,0.6991821 0.985834,1.3046256 1.001653,3.0143139 0.04544,4.9109672 C 13.392002,9.1799765 11.720351,11.002539 9.3022785,12.843037 9.005996,13.06855 8.2106297,13.644079 8.0617722,13.74067 l -0.055696,0.03614 z"
     id="path3797"
     inkscape:connector-curvature="0" />
</svg>
