<svg viewBox="0 0 500 500" xmlns="http://www.w3.org/2000/svg">
  <defs>
    <linearGradient gradientUnits="userSpaceOnUse" x1="234.552" y1="77.019" x2="234.552" y2="342.905" id="gradient-0" gradientTransform="matrix(0.439344, 0.898319, -0.934324, 0.456954, 303.338692, -72.284638)">
      <stop offset="0.1" style="stop-color: #8f5B7B;"></stop>
      <stop offset="1" style="stop-color: #66017f"></stop>
    </linearGradient>
  </defs>
  <path d="M 228.5 89.123 C 196.6 89.223 165.787 100.728 141.628 121.561 C 123.113 137.514 109.698 158.302 106.241 179.162 C 65.73 188.105 35.128 223.396 35.128 266.01 C 35.128 315.513 76.413 355.009 126.521 355.009 L 341.792 355.009 C 385.664 355.009 421.872 320.444 421.872 277.008 C 421.872 237.463 391.851 205.243 353.37 199.804 C 347.497 137.442 293.522 89.123 228.5 89.123" style="fill: url(#gradient-0);"></path>
  <path style="fill: #24a1e9; " d="M 171.993 211.075 C 216.536 211.984 290.273 213.608 285.4 213.509 C 291.987 220.096 288.973 231.344 279.975 233.755 C 275.799 234.874 271.344 233.68 268.287 230.623 L 240.586 202.898 L 240.586 294.581 C 240.586 303.884 230.515 309.699 222.458 305.047 C 218.718 302.888 216.415 298.898 216.415 294.581 L 216.415 202.898 L 188.714 230.623 C 182.127 237.21 170.88 234.196 168.469 225.198 C 167.35 221.022 168.544 216.566 171.601 213.509 L 219.944 165.166 C 224.666 160.432 232.335 160.432 237.057 165.166 L 285.4 213.509"></path>
</svg>